<?xml version="1.0" encoding="utf-8"?>
<!-- Generator: Adobe Illustrator 19.0.0, SVG Export Plug-In . SVG Version: 6.00 Build 0)  -->
<svg version="1.1" id="Layer_1" xmlns="http://www.w3.org/2000/svg" xmlns:xlink="http://www.w3.org/1999/xlink" x="0px" y="0px"
	 viewBox="0 0 140 140" style="enable-background:new 0 0 140 140;" xml:space="preserve">
<style type="text/css">
	.st0{fill:#010202;}
</style>
<g id="XMLID_137_">
	<path id="XMLID_141_" class="st0" d="M105.3,67.4c3.6-3.2,4.3-4.8,4.3-6.5c0-2.3-1.7-3.2-7.5-3.8v-5.4h29.7V57
		c-4.2,0.5-7.3,1.1-10.7,4.6l-13.5,13l26.7,42.6v3.7h-27.1L85.9,84.8L105.3,67.4z"/>
	<g id="XMLID_138_">
		<path id="XMLID_67_" class="st0" d="M38.8,111V79.6h0V52.1h0V21h-4.5L5.7,26.8v4.3l6.8,3.4V111c0,3.8-2,4.2-6.8,4.6v5.4h39.4v-5.4
			C40.4,115.2,38.8,114.8,38.8,111z"/>
		<path id="XMLID_66_" class="st0" d="M82.4,111V71.3c0-14-7.4-20.9-19.8-20.9c-8.6,0-14.8,3.6-19.3,7.8v7.9
			c1.5-0.3,3.1-0.4,4.9-0.4c6.4,0,7.9,3.2,7.9,7.9V111c0,3.8-1.7,4.2-6.4,4.6v5.4h39.4v-5.4C84.5,115.2,82.4,114.8,82.4,111z"/>
	</g>
</g>
</svg>
